# xmcd
#
# Track frame offsets:
#	150
#	11617
#	24915
#	42340
#	53615
#	65597
#	78817
#	94777
#	106435
#	119192
#	132065
#	143392
#	156205
#	170717
#	182900
#	195135
#	208517
#	219282
#	231105
#
# Disc length: 3238 seconds
#
# Revision: 0
# Processed by: cddbd v1.5.2PL0 Copyright (c) Steve Scherf et al.
# Submitted via: dBpowerAMP V4.0
#
DISCID=f80ca413
DTITLE=Various Artist - Country Roads Disc 1
DYEAR=1900
DGENRE=
TTITLE0=01 Crystal GayleVarious - Dont It Make My Brown Eyes Blue
TTITLE1=02 Kenny Rodgers and The First Edition - Ruby Don't Take Your Guns To Town
TTITLE2=03 Alabama - Mountain Music
TTITLE3=04 Waylon Jennings - Ladies Love Outlaws
TTITLE4=05 Dolly Parton - Jolene
TTITLE5=06 Charlie Rich - Behind Closed Doors
TTITLE6=07 Billie Jo Spears - Blanket On The Ground
TTITLE7=08 Johnny Cash - I Walk The Line
TTITLE8=09 Charley Pride - Crystal Chandelier
TTITLE9=10 Waylon Jennings - Are You Sure Hank Done It This Way
TTITLE10=11 Willie Nelson - Crazy arms
TTITLE11=12 Patsy Cline - I Fall To Pieces
TTITLE12=13 Glen Campbell - Rhinestone Cowboy
TTITLE13=14 Dolly Parton - The Bargain Store
TTITLE14=15 Waylon Jennings - Mason Dixon Line
TTITLE15=16 Willie Nelson - Fire And Rain
TTITLE16=17 Jim Reeves - He'll Have To Go
TTITLE17=18 Johnny Cash - Ring Of Fire
TTITLE18=19 Bill Monroe and The Blue Grass Boys - Orange Blossom Special
EXTD=
EXTT0=
EXTT1=
EXTT2=
EXTT3=
EXTT4=
EXTT5=
EXTT6=
EXTT7=
EXTT8=
EXTT9=
EXTT10=
EXTT11=
EXTT12=
EXTT13=
EXTT14=
EXTT15=
EXTT16=
EXTT17=
EXTT18=
PLAYORDER=
